<svg xmlns="http://www.w3.org/2000/svg" width="413.28" height="56.16" viewBox="0 0 413.28 56.16">
  <g id="Grupo_3782" data-name="Grupo 3782" transform="translate(-15854.92 -537.62)">
    <path id="Caminho_1756" data-name="Caminho 1756" d="M35.94-16.02q0,.18-.18,2.52H11.34a7.605,7.605,0,0,0,3.12,4.74,10.334,10.334,0,0,0,6.12,1.74,12.392,12.392,0,0,0,4.47-.75,10.827,10.827,0,0,0,3.63-2.37l4.98,5.4Q29.1.48,20.34.48a21.071,21.071,0,0,1-9.66-2.13A15.614,15.614,0,0,1,4.2-7.56a16.284,16.284,0,0,1-2.28-8.58,16.5,16.5,0,0,1,2.25-8.55,15.763,15.763,0,0,1,6.18-5.94,18.145,18.145,0,0,1,8.79-2.13,18,18,0,0,1,8.58,2.04,14.89,14.89,0,0,1,6.03,5.85A17.444,17.444,0,0,1,35.94-16.02ZM19.2-25.68a8.061,8.061,0,0,0-5.34,1.8,7.663,7.663,0,0,0-2.64,4.92h15.9a7.739,7.739,0,0,0-2.64-4.89A7.891,7.891,0,0,0,19.2-25.68ZM42.18-44.52h9.36V0H42.18ZM73.26-32.76q7.5,0,11.52,3.57T88.8-18.42V0H80.04V-4.02Q77.4.48,70.2.48A15.272,15.272,0,0,1,63.75-.78a9.618,9.618,0,0,1-4.17-3.48A9.057,9.057,0,0,1,58.14-9.3a8.411,8.411,0,0,1,3.39-7.08Q64.92-18.96,72-18.96h7.44a5.965,5.965,0,0,0-1.86-4.71Q75.72-25.32,72-25.32a16.293,16.293,0,0,0-5.07.81,13.413,13.413,0,0,0-4.23,2.19l-3.36-6.54a20.273,20.273,0,0,1,6.33-2.88A28.356,28.356,0,0,1,73.26-32.76ZM72.54-5.82A8.152,8.152,0,0,0,76.8-6.93a6.074,6.074,0,0,0,2.64-3.27v-3.3H73.02q-5.76,0-5.76,3.78a3.366,3.366,0,0,0,1.41,2.85A6.351,6.351,0,0,0,72.54-5.82ZM108.12.48a31.357,31.357,0,0,1-7.86-.99A20.536,20.536,0,0,1,94.14-3l3.12-6.72a19.637,19.637,0,0,0,5.22,2.25,21.878,21.878,0,0,0,6,.87q5.94,0,5.94-2.94a2.081,2.081,0,0,0-1.62-1.98,24,24,0,0,0-4.98-1.02,48.042,48.042,0,0,1-6.54-1.38,10.147,10.147,0,0,1-4.47-2.76,7.848,7.848,0,0,1-1.89-5.64,8.835,8.835,0,0,1,1.77-5.43,11.392,11.392,0,0,1,5.16-3.69,22.038,22.038,0,0,1,8.01-1.32,31.437,31.437,0,0,1,6.81.75,19.035,19.035,0,0,1,5.61,2.07l-3.12,6.66a18.626,18.626,0,0,0-9.3-2.4,9.462,9.462,0,0,0-4.5.84,2.47,2.47,0,0,0-1.5,2.16,2.144,2.144,0,0,0,1.62,2.1,28.679,28.679,0,0,0,5.16,1.14,55.234,55.234,0,0,1,6.48,1.41,9.735,9.735,0,0,1,4.38,2.73,7.747,7.747,0,0,1,1.86,5.52,8.524,8.524,0,0,1-1.8,5.34,11.49,11.49,0,0,1-5.25,3.63A23.39,23.39,0,0,1,108.12.48ZM168.3-42V0h-7.98L139.38-25.5V0h-9.6V-42h8.04L158.7-16.5V-42Zm22.32,9.24q7.5,0,11.52,3.57t4.02,10.77V0H197.4V-4.02q-2.64,4.5-9.84,4.5a15.272,15.272,0,0,1-6.45-1.26,9.618,9.618,0,0,1-4.17-3.48A9.057,9.057,0,0,1,175.5-9.3a8.411,8.411,0,0,1,3.39-7.08q3.39-2.58,10.47-2.58h7.44a5.965,5.965,0,0,0-1.86-4.71q-1.86-1.65-5.58-1.65a16.293,16.293,0,0,0-5.07.81,13.414,13.414,0,0,0-4.23,2.19l-3.36-6.54a20.273,20.273,0,0,1,6.33-2.88A28.356,28.356,0,0,1,190.62-32.76ZM189.9-5.82a8.152,8.152,0,0,0,4.26-1.11,6.074,6.074,0,0,0,2.64-3.27v-3.3h-6.42q-5.76,0-5.76,3.78a3.366,3.366,0,0,0,1.41,2.85A6.351,6.351,0,0,0,189.9-5.82Zm34.08-28.26H210.54V-42h36.6v7.92H233.7V0h-9.72Zm56.04,18.06q0,.18-.18,2.52H255.42a7.605,7.605,0,0,0,3.12,4.74,10.334,10.334,0,0,0,6.12,1.74,12.393,12.393,0,0,0,4.47-.75,10.827,10.827,0,0,0,3.63-2.37l4.98,5.4Q273.18.48,264.42.48a21.071,21.071,0,0,1-9.66-2.13,15.614,15.614,0,0,1-6.48-5.91A16.284,16.284,0,0,1,246-16.14a16.5,16.5,0,0,1,2.25-8.55,15.763,15.763,0,0,1,6.18-5.94,18.145,18.145,0,0,1,8.79-2.13,18,18,0,0,1,8.58,2.04,14.89,14.89,0,0,1,6.03,5.85A17.444,17.444,0,0,1,280.02-16.02Zm-16.74-9.66a8.061,8.061,0,0,0-5.34,1.8,7.663,7.663,0,0,0-2.64,4.92h15.9a7.739,7.739,0,0,0-2.64-4.89A7.891,7.891,0,0,0,263.28-25.68ZM301.86.48a19.847,19.847,0,0,1-9.27-2.13,15.95,15.95,0,0,1-6.42-5.91,16.122,16.122,0,0,1-2.31-8.58,16.122,16.122,0,0,1,2.31-8.58,15.95,15.95,0,0,1,6.42-5.91,19.847,19.847,0,0,1,9.27-2.13,17.961,17.961,0,0,1,8.91,2.13,12.633,12.633,0,0,1,5.55,6.09l-7.26,3.9a7.936,7.936,0,0,0-7.26-4.44,8.214,8.214,0,0,0-6.06,2.4,8.837,8.837,0,0,0-2.4,6.54,8.837,8.837,0,0,0,2.4,6.54,8.214,8.214,0,0,0,6.06,2.4,7.854,7.854,0,0,0,7.26-4.44l7.26,3.96a12.886,12.886,0,0,1-5.55,6A17.761,17.761,0,0,1,301.86.48ZM341.1-32.76a13.284,13.284,0,0,1,9.69,3.6q3.69,3.6,3.69,10.68V0h-9.36V-17.04q0-3.84-1.68-5.73a6.161,6.161,0,0,0-4.86-1.89,7.449,7.449,0,0,0-5.64,2.19q-2.1,2.19-2.1,6.51V0h-9.36V-44.52h9.36v15.6a12.451,12.451,0,0,1,4.5-2.85A16.279,16.279,0,0,1,341.1-32.76Z" transform="translate(15853 582.72)" fill="#fff"/>
    <path id="Caminho_1755" data-name="Caminho 1755" d="M370.5,11.64a43.463,43.463,0,0,1-5.55-12.66A58.786,58.786,0,0,1,363-16.44a59.125,59.125,0,0,1,1.95-15.45,42.579,42.579,0,0,1,5.55-12.63h8.94a54.472,54.472,0,0,0-5.52,13.53,59.07,59.07,0,0,0-1.74,14.55,59.07,59.07,0,0,0,1.74,14.55,54.472,54.472,0,0,0,5.52,13.53Zm10.14,0a55.361,55.361,0,0,0,5.55-13.53,58.119,58.119,0,0,0,1.77-14.55,58.119,58.119,0,0,0-1.77-14.55,55.361,55.361,0,0,0-5.55-13.53h8.94a40.864,40.864,0,0,1,5.61,12.57,59.365,59.365,0,0,1,1.95,15.51A59.554,59.554,0,0,1,395.22-.99a41.124,41.124,0,0,1-5.64,12.63Z" transform="translate(15853 582.14)" fill="#8fc440"/>
    <path id="Caminho_1754" data-name="Caminho 1754" d="M409.38-21.06a5.626,5.626,0,0,1-4.14-1.68,5.7,5.7,0,0,1-1.68-4.2,5.477,5.477,0,0,1,1.68-4.17,5.794,5.794,0,0,1,4.14-1.59,5.794,5.794,0,0,1,4.14,1.59,5.477,5.477,0,0,1,1.68,4.17,5.7,5.7,0,0,1-1.68,4.2A5.626,5.626,0,0,1,409.38-21.06Zm.06,9.9a5.663,5.663,0,0,1,4.14,1.59A5.582,5.582,0,0,1,415.2-5.4a9.863,9.863,0,0,1-.3,2.4A27.1,27.1,0,0,1,413.58.6l-3.42,8.64h-5.94L406.86-.3a4.931,4.931,0,0,1-2.37-1.95,5.686,5.686,0,0,1-.87-3.15,5.528,5.528,0,0,1,1.65-4.17A5.767,5.767,0,0,1,409.44-11.16Z" transform="translate(15853 583.14)" fill="#fff"/>
  </g>
</svg>
