<svg id="Grupo_3687" data-name="Grupo 3687" xmlns="http://www.w3.org/2000/svg" width="115.049" height="33.464" viewBox="0 0 115.049 33.464">
  <g id="Grupo_3684" data-name="Grupo 3684" transform="translate(42.079 28.991)">
    <path id="Caminho_1682" data-name="Caminho 1682" d="M238.79,317.179h.8l1.377,3.672,1.383-3.672h.8v4.369h-.551v-3.635h-.012l-1.365,3.635h-.5l-1.365-3.635h-.012v3.635h-.551Z" transform="translate(-238.79 -317.179)" fill="#262626"/>
    <path id="Caminho_1683" data-name="Caminho 1683" d="M256.428,322.686a1.275,1.275,0,0,1-1.352,1.077c-1.01,0-1.487-.7-1.518-1.664a1.523,1.523,0,0,1,1.487-1.646c1.119,0,1.462,1.047,1.432,1.811h-2.368a.932.932,0,0,0,.985,1.04.762.762,0,0,0,.82-.618Zm-.5-.881a.909.909,0,0,0-1.818,0Z" transform="translate(-248.452 -319.321)" fill="#262626"/>
    <path id="Caminho_1684" data-name="Caminho 1684" d="M263.687,320.526h.49v.465h.012a1.166,1.166,0,0,1,1.022-.539.84.84,0,0,1,.869.539,1.17,1.17,0,0,1,.991-.539c.63,0,1.052.263,1.052.918v2.319h-.52v-2.074c0-.391-.1-.7-.612-.7a.767.767,0,0,0-.826.808v1.97h-.52v-2.074c0-.41-.129-.7-.594-.7a.854.854,0,0,0-.845.808v1.97h-.52Z" transform="translate(-255.079 -319.321)" fill="#262626"/>
    <path id="Caminho_1685" data-name="Caminho 1685" d="M278.968,317.179h.52v1.634h.012a1.065,1.065,0,0,1,1.01-.5,1.483,1.483,0,0,1,1.457,1.665,1.461,1.461,0,0,1-1.444,1.646,1.211,1.211,0,0,1-1.022-.5h-.012v.422h-.52Zm1.469,1.591c-.7,0-.967.6-.967,1.194,0,.624.282,1.2,1,1.2s.948-.606.948-1.224C281.416,319.345,281.11,318.77,280.437,318.77Z" transform="translate(-265.077 -317.179)" fill="#262626"/>
    <path id="Caminho_1686" data-name="Caminho 1686" d="M289.487,320.524h.49v.667h.012a1.15,1.15,0,0,1,1.163-.741V321c-.838,0-1.144.477-1.144,1.279v1.407h-.52Z" transform="translate(-271.959 -319.319)" fill="#262626"/>
    <path id="Caminho_1687" data-name="Caminho 1687" d="M296.6,320.453a1.66,1.66,0,1,1-1.536,1.658A1.5,1.5,0,0,1,296.6,320.453Zm0,2.852c.545,0,.985-.428.985-1.193s-.441-1.2-.985-1.2-.985.429-.985,1.2S296.056,323.3,296.6,323.3Z" transform="translate(-275.608 -319.321)" fill="#262626"/>
    <path id="Caminho_1688" data-name="Caminho 1688" d="M313.4,321.548h-.52v-.428h-.012a1.066,1.066,0,0,1-1.01.5,1.482,1.482,0,0,1-1.456-1.664,1.461,1.461,0,0,1,1.444-1.646,1.212,1.212,0,0,1,1.022.5h.012v-1.628h.52Zm-1.469-.385c.7,0,.966-.6.966-1.193,0-.624-.281-1.2-1-1.2s-.948.606-.948,1.224C310.951,320.587,311.256,321.163,311.93,321.163Z" transform="translate(-285.642 -317.179)" fill="#262626"/>
    <path id="Caminho_1689" data-name="Caminho 1689" d="M324,323.678a.7.7,0,0,1-.373.085c-.269,0-.44-.146-.44-.49a1.4,1.4,0,0,1-1.114.49c-.575,0-1.047-.257-1.047-.887,0-.716.532-.869,1.071-.973.576-.11,1.065-.073,1.065-.465,0-.453-.374-.527-.7-.527-.44,0-.765.135-.789.6h-.52c.031-.783.636-1.059,1.34-1.059.569,0,1.188.129,1.188.869v1.628c0,.245,0,.355.165.355a.437.437,0,0,0,.159-.031Zm-.844-1.621a2.679,2.679,0,0,1-.942.214c-.343.061-.636.184-.636.569,0,.343.293.465.612.465.685,0,.967-.428.967-.716Z" transform="translate(-292.592 -319.321)" fill="#262626"/>
    <path id="Caminho_1690" data-name="Caminho 1690" d="M338.018,320.459a1.132,1.132,0,0,1-1.291,1.193,1.151,1.151,0,0,1-1.273-1.273v-.269h.581v.184c0,.508.134.869.7.869.532,0,.7-.306.7-.789v-3.194h.581Z" transform="translate(-302.034 -317.179)" fill="#262626"/>
    <path id="Caminho_1691" data-name="Caminho 1691" d="M345.963,317.179h.642l1.708,4.369h-.643l-.477-1.316h-1.848l-.49,1.316h-.6Zm-.435,2.564h1.481l-.728-2.038h-.013Z" transform="translate(-307.792 -317.179)" fill="#262626"/>
    <path id="Caminho_1692" data-name="Caminho 1692" d="M365.587,321.548h-.606l-1-3.672h-.012l-1.01,3.672h-.606l-1.12-4.369h.594l.857,3.635h.012l.979-3.635h.63l.967,3.635h.012l.888-3.635h.582Z" transform="translate(-318.903 -317.179)" fill="#262626"/>
    <path id="Caminho_1693" data-name="Caminho 1693" d="M379.719,320.453a1.66,1.66,0,1,1-1.536,1.658A1.5,1.5,0,0,1,379.719,320.453Zm0,2.852c.545,0,.985-.428.985-1.193s-.44-1.2-.985-1.2-.985.429-.985,1.2S379.174,323.3,379.719,323.3Z" transform="translate(-329.99 -319.321)" fill="#262626"/>
    <path id="Caminho_1694" data-name="Caminho 1694" d="M388.912,320.524h.49v.667h.012a1.15,1.15,0,0,1,1.163-.741V321c-.838,0-1.145.477-1.145,1.279v1.407h-.52Z" transform="translate(-337.01 -319.319)" fill="#262626"/>
    <path id="Caminho_1695" data-name="Caminho 1695" d="M395.075,317.179h.52v4.369h-.52Z" transform="translate(-341.042 -317.179)" fill="#262626"/>
    <path id="Caminho_1696" data-name="Caminho 1696" d="M401.543,321.548h-.52v-.428h-.012a1.065,1.065,0,0,1-1.01.5,1.482,1.482,0,0,1-1.457-1.664,1.461,1.461,0,0,1,1.444-1.646,1.212,1.212,0,0,1,1.022.5h.012v-1.628h.52Zm-1.469-.385c.7,0,.967-.6.967-1.193,0-.624-.282-1.2-1-1.2s-.948.606-.948,1.224C399.1,320.587,399.4,321.163,400.074,321.163Z" transform="translate(-343.312 -317.179)" fill="#262626"/>
    <path id="Caminho_1697" data-name="Caminho 1697" d="M412.253,323.829H411.7l-.642-2.515h-.012l-.637,2.515h-.563l-1.016-3.164h.575l.716,2.588h.012l.637-2.588h.569l.661,2.588h.012l.71-2.588h.539Z" transform="translate(-350.043 -319.46)" fill="#262626"/>
    <path id="Caminho_1698" data-name="Caminho 1698" d="M423.82,317.815h-.52v-.636h.52Zm-.52.569h.52v3.164h-.52Z" transform="translate(-359.509 -317.179)" fill="#262626"/>
    <path id="Caminho_1699" data-name="Caminho 1699" d="M429.77,321.548h-.52v-.428h-.012a1.065,1.065,0,0,1-1.01.5,1.482,1.482,0,0,1-1.456-1.664,1.461,1.461,0,0,1,1.444-1.646,1.212,1.212,0,0,1,1.022.5h.012v-1.628h.52Zm-1.469-.385c.7,0,.967-.6.967-1.193,0-.624-.281-1.2-1-1.2s-.948.606-.948,1.224C427.322,320.587,427.627,321.163,428.3,321.163Z" transform="translate(-361.78 -317.179)" fill="#262626"/>
    <path id="Caminho_1700" data-name="Caminho 1700" d="M440.264,322.686a1.275,1.275,0,0,1-1.352,1.077c-1.01,0-1.487-.7-1.518-1.664a1.523,1.523,0,0,1,1.487-1.646c1.12,0,1.462,1.047,1.432,1.811h-2.368a.932.932,0,0,0,.985,1.04.762.762,0,0,0,.82-.618Zm-.5-.881a.91.91,0,0,0-.912-.893.9.9,0,0,0-.905.893Z" transform="translate(-368.73 -319.321)" fill="#262626"/>
  </g>
  <path id="Caminho_1701" data-name="Caminho 1701" d="M142.881,244.381c-1.5.006-2.808-.008-4.314-.008v7.372l.01.005,4.109-7.062Zm-4.314,7.367c-1.157,0-3.1.009-4.338,0l.017,7.434Zm-4.338,7.427h-3.857l-.422.011.013,7.481c.594-1.016.95-1.646,1.362-2.333Zm21.833,7.5-11.669.009H117.081l8.524-14.768,8.42-14.558,2.35-4.034h.068l10.351,17.748,9.118,15.368Z" transform="translate(-117.081 -233.324)" fill="#262626"/>
  <g id="Grupo_3685" data-name="Grupo 3685" transform="translate(40.657 5.303)">
    <path id="Caminho_1702" data-name="Caminho 1702" d="M239.118,253.386c0-2.722-.245-3.017-1.692-3.139l-.613-.049c-.147-.1-.1-.54.049-.613,1.423.049,2.256.074,3.287.074.981,0,1.815-.024,2.8-.073.147.073.2.515.049.613l-.368.049c-1.447.2-1.5.54-1.5,3.139v9.1a13.634,13.634,0,0,1-.564,4.758,5.328,5.328,0,0,1-4.832,3.532c-.294,0-1.054-.025-1.054-.515,0-.417.368-1.128.883-1.128a3.042,3.042,0,0,1,.908.147,3.785,3.785,0,0,0,1.03.171,1.046,1.046,0,0,0,.981-.638c.564-1.153.638-4.832.638-6.156Z" transform="translate(-234.679 -249.266)" fill="#262626"/>
    <path id="Caminho_1703" data-name="Caminho 1703" d="M267.021,259.552c-.172-.539-.27-.613-1.006-.613h-3.7c-.613,0-.76.074-.932.588l-.858,2.575a9.387,9.387,0,0,0-.54,2.036c0,.294.123.441.711.491l.809.074a.394.394,0,0,1-.049.613c-.638-.049-1.4-.049-2.551-.074-.809,0-1.692.049-2.354.074a.482.482,0,0,1-.049-.613l.809-.074a1.631,1.631,0,0,0,1.471-1.2c.441-1.128,1.128-2.722,2.158-5.469l2.5-6.622a3.519,3.519,0,0,0,.417-1.741,2.748,2.748,0,0,0,1.275-.932.347.347,0,0,1,.368.221c.319,1.079.712,2.207,1.079,3.287l3.36,9.859c.712,2.109,1.03,2.477,2.085,2.6l.662.074a.481.481,0,0,1,0,.613c-1.006-.049-1.864-.074-2.968-.074-1.178,0-2.109.049-2.82.074a.411.411,0,0,1-.049-.613l.711-.074c.515-.049.858-.2.858-.442a5.033,5.033,0,0,0-.319-1.3Zm-4.856-2.183c-.2.564-.172.588.515.588H265.7c.712,0,.761-.1.54-.76l-1.324-4a16.089,16.089,0,0,0-.564-1.545H264.3a14.994,14.994,0,0,0-.589,1.447Z" transform="translate(-248.897 -248.663)" fill="#262626"/>
  </g>
  <g id="Grupo_3686" data-name="Grupo 3686" transform="translate(69.241 4.347)">
    <path id="Caminho_1704" data-name="Caminho 1704" d="M319.476,252.847c0-1.815-.1-2.281-1.2-2.379l-.785-.074a.392.392,0,0,1,.025-.613c1.324-.123,2.992-.2,5.273-.2a9.33,9.33,0,0,1,4.12.687,3.22,3.22,0,0,1,1.864,3.066c0,1.766-1.03,2.673-2.5,3.36,0,.245.2.319.466.368a4.057,4.057,0,0,1,3.286,4.1c0,2.845-2.109,4.758-6.524,4.758-.711,0-1.913-.074-2.943-.074-1.079,0-1.913.049-2.82.074a.476.476,0,0,1-.049-.613l.441-.074c1.3-.221,1.349-.491,1.349-3.066Zm2.011,3.262c0,.687.024.736,1.275.687,2.5-.1,3.85-.834,3.85-3.139,0-2.4-1.79-3.311-3.654-3.311a3.023,3.023,0,0,0-1.128.147c-.245.074-.343.2-.343.638Zm0,5.69a4.808,4.808,0,0,0,.515,2.674,2.382,2.382,0,0,0,1.938.687c2.183,0,3.85-.981,3.85-3.434,0-1.937-.981-4.194-4.88-4.194-1.325,0-1.422.147-1.422.638Z" transform="translate(-317.354 -248.31)" fill="#262626"/>
    <path id="Caminho_1705" data-name="Caminho 1705" d="M358.026,269.992c0-.956,0-1.079-.662-1.521l-.22-.147a.335.335,0,0,1,.024-.441,19,19,0,0,0,2.477-1.2c.122.025.2.074.2.171v1.423c0,.123.025.2.074.221a4.958,4.958,0,0,1,2.7-1.471,1.016,1.016,0,0,1,1.1.981,1.088,1.088,0,0,1-1.054,1.128.941.941,0,0,1-.54-.171,2.012,2.012,0,0,0-1.079-.392,1.088,1.088,0,0,0-.883.491,3.727,3.727,0,0,0-.319,1.888v3.336c0,1.766.049,2.06.981,2.134l.883.074a.429.429,0,0,1-.049.613c-1.153-.049-1.864-.074-2.723-.074-.883,0-1.618.025-2.256.074a.429.429,0,0,1-.049-.613l.466-.074c.908-.147.932-.368.932-2.134Z" transform="translate(-342.98 -259.495)" fill="#262626"/>
    <path id="Caminho_1706" data-name="Caminho 1706" d="M381.5,272.6c.368-.123.417-.344.417-.711l.025-1.128c.025-.908-.27-2.134-1.79-2.134-.687,0-1.521.344-1.57,1.1-.025.392-.049.687-.245.834a2.641,2.641,0,0,1-1.4.466.31.31,0,0,1-.343-.344c0-1.275,2.771-3.017,4.562-3.017,1.766,0,2.624,1.03,2.55,2.87l-.147,4.267c-.049,1.128.171,2.134,1.128,2.134a1.411,1.411,0,0,0,.613-.147c.123-.074.245-.172.319-.172.1,0,.172.147.172.319a2.572,2.572,0,0,1-2.06,1.079,1.957,1.957,0,0,1-1.594-.76c-.1-.147-.245-.343-.392-.343a3.775,3.775,0,0,0-.956.491,3.631,3.631,0,0,1-1.766.613,2.539,2.539,0,0,1-1.717-.564,2.3,2.3,0,0,1-.76-1.717c0-.957.466-1.521,2.036-2.084Zm-1.521,4.316a2.773,2.773,0,0,0,1.5-.613c.295-.295.295-.638.319-1.153l.049-1.447c0-.27-.1-.319-.245-.319a4.629,4.629,0,0,0-1.005.245c-1.447.491-2.158.858-2.158,1.815A1.478,1.478,0,0,0,379.983,276.92Z" transform="translate(-356.083 -260.145)" fill="#262626"/>
    <path id="Caminho_1707" data-name="Caminho 1707" d="M407.413,268.116a5.731,5.731,0,0,1,.392,1.987.428.428,0,0,1-.589.074,2.392,2.392,0,0,0-2.158-1.791,1.45,1.45,0,0,0-1.57,1.5c0,1.005,1.03,1.545,1.888,2.035,1.3.736,2.5,1.57,2.5,3.311,0,1.864-1.717,2.8-3.532,2.8a4.083,4.083,0,0,1-2.624-.735,7.3,7.3,0,0,1-.294-2.478.416.416,0,0,1,.564-.025c.417,1.349,1.2,2.526,2.6,2.526a1.511,1.511,0,0,0,1.643-1.57c0-1.128-.981-1.741-1.889-2.257-1.422-.809-2.428-1.667-2.428-3.017,0-1.79,1.471-2.8,3.335-2.8A4.337,4.337,0,0,1,407.413,268.116Z" transform="translate(-372.355 -260.145)" fill="#262626"/>
    <path id="Caminho_1708" data-name="Caminho 1708" d="M422.837,260.616c0-.956,0-1.079-.662-1.521l-.221-.147a.335.335,0,0,1,.024-.441,16.858,16.858,0,0,0,2.526-1.2.227.227,0,0,1,.245.147c-.049.858-.1,2.036-.1,3.041v4.415c0,1.766.049,2.011.932,2.134l.515.074a.429.429,0,0,1-.049.613c-.736-.049-1.447-.074-2.306-.074-.883,0-1.619.025-2.305.074a.429.429,0,0,1-.049-.613l.515-.074c.908-.123.932-.368.932-2.134Zm2.035-6.99a1.276,1.276,0,0,1-2.551.049,1.275,1.275,0,0,1,1.325-1.324A1.226,1.226,0,0,1,424.872,253.626Z" transform="translate(-385.351 -250.119)" fill="#262626"/>
    <path id="Caminho_1709" data-name="Caminho 1709" d="M438.675,260.685c0,1.766.049,2.011.932,2.134l.588.074a.429.429,0,0,1-.049.613c-.809-.049-1.521-.074-2.379-.074-.883,0-1.619.025-2.354.074a.429.429,0,0,1-.049-.613l.564-.074c.908-.123.932-.368.932-2.134V249.6c0-1.447-.024-1.594-.76-2.036l-.245-.147a.372.372,0,0,1,0-.49,17.425,17.425,0,0,0,2.649-1.03.27.27,0,0,1,.245.147c-.025.736-.074,1.962-.074,3.041Z" transform="translate(-394.494 -245.896)" fill="#262626"/>
  </g>
</svg>
